<svg width="32" height="33" viewBox="0 0 32 33" fill="none" xmlns="http://www.w3.org/2000/svg">
<g id="crown">
<path id="Vector" d="M16 11.625C16.2589 11.625 16.4688 11.4151 16.4688 11.1562C16.4688 10.8974 16.2589 10.6875 16 10.6875C15.7411 10.6875 15.5312 10.8974 15.5312 11.1562C15.5312 11.4151 15.7411 11.625 16 11.625Z" fill="#595BD4"/>
<path id="Vector_2" d="M16 21.25C16.2589 21.25 16.4688 21.0401 16.4688 20.7812C16.4688 20.5224 16.2589 20.3125 16 20.3125C15.7411 20.3125 15.5312 20.5224 15.5312 20.7812C15.5312 21.0401 15.7411 21.25 16 21.25Z" fill="#595BD4"/>
<path id="Vector_3" d="M29.3044 16.2313C29.5633 16.2313 29.7732 16.0214 29.7732 15.7625C29.7732 15.5036 29.5633 15.2938 29.3044 15.2938C29.0456 15.2938 28.8357 15.5036 28.8357 15.7625C28.8357 16.0214 29.0456 16.2313 29.3044 16.2313Z" fill="#595BD4"/>
<path id="Vector_4" d="M2.69556 16.2313C2.95444 16.2313 3.16431 16.0214 3.16431 15.7625C3.16431 15.5036 2.95444 15.2938 2.69556 15.2938C2.43667 15.2938 2.22681 15.5036 2.22681 15.7625C2.22681 16.0214 2.43667 16.2313 2.69556 16.2313Z" fill="#595BD4"/>
<path id="Vector_5" d="M23.238 14.9269C23.4969 14.9269 23.7068 14.717 23.7068 14.4581C23.7068 14.1992 23.4969 13.9894 23.238 13.9894C22.9792 13.9894 22.7693 14.1992 22.7693 14.4581C22.7693 14.717 22.9792 14.9269 23.238 14.9269Z" fill="#595BD4"/>
<path id="Vector_6" d="M8.76196 14.9269C9.02085 14.9269 9.23071 14.717 9.23071 14.4581C9.23071 14.1992 9.02085 13.9894 8.76196 13.9894C8.50308 13.9894 8.29321 14.1992 8.29321 14.4581C8.29321 14.717 8.50308 14.9269 8.76196 14.9269Z" fill="#595BD4"/>
<path id="Vector_7" d="M29.5 25.0312H2.5C1.72335 25.0312 1.09375 25.6608 1.09375 26.4375C1.09375 27.2142 1.72335 27.8438 2.5 27.8438H29.5C30.2766 27.8438 30.9062 27.2142 30.9062 26.4375C30.9062 25.6608 30.2766 25.0312 29.5 25.0312Z" fill="#FE9A30"/>
<path id="Vector_8" d="M29.5 25.0312H28.5625C28.9355 25.0313 29.2931 25.1794 29.5569 25.4431C29.8206 25.7069 29.9688 26.0645 29.9688 26.4375C29.9688 26.8105 29.8206 27.1681 29.5569 27.4319C29.2931 27.6956 28.9355 27.8438 28.5625 27.8438H29.5C29.873 27.8438 30.2306 27.6956 30.4944 27.4319C30.7581 27.1681 30.9062 26.8105 30.9062 26.4375C30.9062 26.0645 30.7581 25.7069 30.4944 25.4431C30.2306 25.1794 29.873 25.0312 29.5 25.0312Z" fill="#FE9526"/>
<path id="Vector_9" d="M2.82812 25.0312C2.43771 22.8604 2.04667 20.6898 1.655 18.5194L0.46875 13.0625L4.70312 14.8438L4.69063 14.8663C4.5036 15.084 4.38296 15.3508 4.34303 15.635C4.30309 15.9192 4.34554 16.2089 4.46532 16.4697C4.58511 16.7305 4.77721 16.9515 5.01883 17.1064C5.26044 17.2613 5.54143 17.3437 5.82844 17.3437C6.11545 17.3437 6.39644 17.2613 6.63805 17.1064C6.87966 16.9515 7.07176 16.7305 7.19155 16.4697C7.31134 16.2089 7.35378 15.9192 7.31385 15.635C7.27391 15.3508 7.15327 15.084 6.96625 14.8663L6.95312 14.8438C7.23313 13.2312 7.51333 11.6185 7.79375 10.0056L10.6406 14.0938C10.5505 14.3681 10.5219 14.659 10.5569 14.9456C10.6819 15.9225 11.5331 16.4288 11.6331 16.4862C12.0053 16.6968 12.4292 16.798 12.8563 16.7783C13.2834 16.7586 13.6963 16.6188 14.0475 16.375C15.0306 15.68 14.9931 14.485 14.985 14.3556C14.9375 13.3881 14.2844 12.5163 13.3206 12.125L15.9838 5.15625H16.0163L18.6775 12.125C17.7137 12.5163 17.0606 13.3881 17.0131 14.3556C17.0069 14.485 16.9694 15.68 17.9506 16.375C18.3019 16.6188 18.7148 16.7584 19.1419 16.778C19.569 16.7976 19.9929 16.6962 20.365 16.4856C20.465 16.4281 21.3162 15.9231 21.4412 14.945C21.4763 14.6583 21.4477 14.3675 21.3575 14.0931L24.2044 10.005C24.4844 11.6175 24.7646 13.2302 25.045 14.8431L25.0319 14.8656C24.8449 15.0833 24.7242 15.3501 24.6843 15.6343C24.6443 15.9186 24.6868 16.2083 24.8066 16.4691C24.9264 16.7299 25.1185 16.9509 25.3601 17.1058C25.6017 17.2607 25.8827 17.3431 26.1697 17.3431C26.4567 17.3431 26.7377 17.2607 26.9793 17.1058C27.2209 16.9509 27.413 16.7299 27.5328 16.4691C27.6526 16.2083 27.695 15.9186 27.6551 15.6343C27.6152 15.3501 27.4945 15.0833 27.3075 14.8656L27.295 14.8431L31.5312 13.0625L30.3438 18.5225C29.9525 20.6933 29.5615 22.864 29.1706 25.0344L2.82812 25.0312Z" fill="#FE9A30"/>
<path id="Vector_10" d="M13.7175 12.3231C13.6287 12.1728 13.525 12.0316 13.4081 11.9019C13.3794 11.9762 13.3513 12.0512 13.3225 12.1256C13.459 12.1812 13.5911 12.2473 13.7175 12.3231ZM24.1094 13.9062L24.0963 13.9288C23.9364 14.1148 23.8246 14.3371 23.7706 14.5764C23.7167 14.8156 23.7222 15.0644 23.7867 15.301C23.8512 15.5377 23.9728 15.7548 24.1407 15.9336C24.3087 16.1123 24.5179 16.2471 24.75 16.3263C24.6661 16.0793 24.6481 15.8148 24.6976 15.5588C24.7471 15.3027 24.8626 15.0641 25.0325 14.8663L25.0456 14.8438C24.7652 13.2312 24.4854 11.6185 24.2063 10.0056C24 10.3027 23.7933 10.5994 23.5863 10.8956L24.1094 13.9062ZM17.74 11.1875C16.7763 11.5788 16.1231 12.4506 16.0756 13.4181C16.0694 13.5475 16.0319 14.7425 17.0131 15.4375C17.0991 15.4981 17.1893 15.5524 17.2831 15.6C17.0923 15.2136 16.9989 14.7864 17.0113 14.3556C17.0588 13.3881 17.7119 12.5163 18.6756 12.125L16.0163 5.15625H15.9838L15.71 5.875L17.74 11.1875Z" fill="#FE9526"/>
<path id="Vector_11" d="M30.275 13.5887C29.9859 14.9221 29.6967 16.2531 29.4075 17.5819L28.4194 23.0656C28.3674 23.3543 28.2154 23.6155 27.9902 23.8034C27.765 23.9914 27.4809 24.0941 27.1875 24.0937H2.65942L2.82817 25.0312H29.1719L30.345 18.5194L31.5325 13.0594L30.275 13.5887ZM9.70317 13.1562C9.61302 13.4306 9.58442 13.7215 9.61942 14.0081C9.74442 14.985 10.5957 15.4912 10.6957 15.5487C10.7169 15.5606 10.7382 15.5712 10.7582 15.5825C10.6527 15.3842 10.5838 15.1684 10.555 14.9456C10.52 14.659 10.5486 14.3681 10.6388 14.0937L7.7938 10.0056L7.73692 10.3325L9.70317 13.1562ZM3.40442 15.1087C3.4421 15.3849 3.55598 15.6451 3.73327 15.8601C3.91057 16.0752 4.14427 16.2366 4.40817 16.3262C4.32429 16.0793 4.30622 15.8148 4.35576 15.5588C4.4053 15.3027 4.52074 15.064 4.69067 14.8662L4.70317 14.8437L3.50005 14.3381C3.40108 14.5821 3.3681 14.8479 3.40442 15.1087Z" fill="#FE9526"/>
<path id="Vector_12" d="M16 22.7812C17.1218 22.7812 18.0312 21.8718 18.0312 20.75C18.0312 19.6282 17.1218 18.7188 16 18.7188C14.8782 18.7188 13.9688 19.6282 13.9688 20.75C13.9688 21.8718 14.8782 22.7812 16 22.7812Z" fill="#EB9030"/>
<path id="Vector_13" d="M16 18.7188C15.8421 18.7188 15.6848 18.7373 15.5312 18.7738C15.976 18.8794 16.372 19.1319 16.6554 19.4906C16.9389 19.8492 17.093 20.2929 17.093 20.75C17.093 21.2071 16.9389 21.6508 16.6554 22.0094C16.372 22.3681 15.976 22.6206 15.5312 22.7262C15.8102 22.7925 16.1 22.799 16.3817 22.7452C16.6633 22.6914 16.9304 22.5786 17.1653 22.4143C17.4002 22.2499 17.5977 22.0376 17.7447 21.7914C17.8917 21.5453 17.9849 21.2708 18.0182 20.986C18.0515 20.7012 18.0242 20.4126 17.938 20.1391C17.8517 19.8657 17.7086 19.6136 17.5179 19.3994C17.3273 19.1853 17.0935 19.0139 16.8318 18.8966C16.5702 18.7792 16.2867 18.7186 16 18.7188Z" fill="#E48622"/>
<path id="Vector_14" d="M26.6875 21.6875C27.2053 21.6875 27.625 21.2678 27.625 20.75C27.625 20.2322 27.2053 19.8125 26.6875 19.8125C26.1697 19.8125 25.75 20.2322 25.75 20.75C25.75 21.2678 26.1697 21.6875 26.6875 21.6875Z" fill="#EB9030"/>
<path id="Vector_15" d="M26.6875 19.8125C26.6196 19.8126 26.5519 19.8202 26.4856 19.835C26.6936 19.8814 26.8797 19.9974 27.013 20.1637C27.1463 20.33 27.2189 20.5368 27.2189 20.75C27.2189 20.9632 27.1463 21.17 27.013 21.3363C26.8797 21.5026 26.6936 21.6186 26.4856 21.665C26.6143 21.6937 26.7476 21.695 26.8768 21.6686C27.0061 21.6423 27.1283 21.589 27.2355 21.5123C27.3427 21.4355 27.4326 21.337 27.4991 21.2231C27.5657 21.1093 27.6074 20.9827 27.6217 20.8516C27.636 20.7205 27.6225 20.5878 27.582 20.4623C27.5415 20.3368 27.4751 20.2212 27.3869 20.1232C27.2987 20.0251 27.1908 19.9468 27.0703 19.8932C26.9498 19.8397 26.8193 19.8122 26.6875 19.8125Z" fill="#E48622"/>
<path id="Vector_16" d="M5.3125 21.6875C5.83027 21.6875 6.25 21.2678 6.25 20.75C6.25 20.2322 5.83027 19.8125 5.3125 19.8125C4.79473 19.8125 4.375 20.2322 4.375 20.75C4.375 21.2678 4.79473 21.6875 5.3125 21.6875Z" fill="#EB9030"/>
<path id="Vector_17" d="M10.3751 22.8619L8.76196 20.75L10.3751 18.6381L11.9882 20.75L10.3751 22.8619Z" fill="#1C76E1"/>
<path id="Vector_18" d="M10.375 18.6381L9.90625 19.25L10.7612 20.3687C10.8445 20.4777 10.8896 20.611 10.8896 20.7481C10.8896 20.8852 10.8445 21.0185 10.7612 21.1275L9.90625 22.25L10.375 22.8637L11.9881 20.75L10.375 18.6381Z" fill="#167FFC"/>
<path id="Vector_19" d="M21.6251 22.8619L20.012 20.75L21.6251 18.6381L23.2382 20.75L21.6251 22.8619Z" fill="#1C76E1"/>
<path id="Vector_20" d="M21.625 18.6381L21.1562 19.25L22.0112 20.3687C22.0945 20.4777 22.1396 20.611 22.1396 20.7481C22.1396 20.8852 22.0945 21.0185 22.0112 21.1275L21.1562 22.25L21.625 22.8637L23.2381 20.75L21.625 18.6381Z" fill="#167FFC"/>
<path id="Vector_21" d="M16 11.625C16.2589 11.625 16.4688 11.4151 16.4688 11.1562C16.4688 10.8974 16.2589 10.6875 16 10.6875C15.7411 10.6875 15.5312 10.8974 15.5312 11.1562C15.5312 11.4151 15.7411 11.625 16 11.625Z" fill="#EB9030"/>
<path id="Vector_22" d="M16 21.25C16.2589 21.25 16.4688 21.0401 16.4688 20.7812C16.4688 20.5224 16.2589 20.3125 16 20.3125C15.7411 20.3125 15.5312 20.5224 15.5312 20.7812C15.5312 21.0401 15.7411 21.25 16 21.25Z" fill="#53D86A"/>
<path id="Vector_23" d="M29.3044 16.2313C29.5633 16.2313 29.7732 16.0214 29.7732 15.7625C29.7732 15.5036 29.5633 15.2938 29.3044 15.2938C29.0456 15.2938 28.8357 15.5036 28.8357 15.7625C28.8357 16.0214 29.0456 16.2313 29.3044 16.2313Z" fill="#EB9030"/>
<path id="Vector_24" d="M2.69556 16.2313C2.95444 16.2313 3.16431 16.0214 3.16431 15.7625C3.16431 15.5036 2.95444 15.2938 2.69556 15.2938C2.43667 15.2938 2.22681 15.5036 2.22681 15.7625C2.22681 16.0214 2.43667 16.2313 2.69556 16.2313Z" fill="#EB9030"/>
<path id="Vector_25" d="M23.238 14.9269C23.4969 14.9269 23.7068 14.717 23.7068 14.4581C23.7068 14.1992 23.4969 13.9894 23.238 13.9894C22.9792 13.9894 22.7693 14.1992 22.7693 14.4581C22.7693 14.717 22.9792 14.9269 23.238 14.9269Z" fill="#1C76E1"/>
<path id="Vector_26" d="M8.76196 14.9269C9.02085 14.9269 9.23071 14.717 9.23071 14.4581C9.23071 14.1992 9.02085 13.9894 8.76196 13.9894C8.50308 13.9894 8.29321 14.1992 8.29321 14.4581C8.29321 14.717 8.50308 14.9269 8.76196 14.9269Z" fill="#1C76E1"/>
<path id="Vector_27" d="M5.31247 19.8125C5.24456 19.8126 5.17687 19.8202 5.1106 19.835C5.31865 19.8814 5.50467 19.9974 5.63798 20.1637C5.77129 20.33 5.84394 20.5368 5.84394 20.75C5.84394 20.9632 5.77129 21.17 5.63798 21.3363C5.50467 21.5026 5.31865 21.6186 5.1106 21.665C5.23931 21.6937 5.37263 21.695 5.50185 21.6686C5.63107 21.6423 5.75328 21.589 5.86051 21.5123C5.96773 21.4355 6.05755 21.337 6.1241 21.2231C6.19066 21.1093 6.23244 20.9827 6.24673 20.8516C6.26101 20.7205 6.24748 20.5878 6.20701 20.4623C6.16655 20.3368 6.10005 20.2212 6.01188 20.1232C5.92371 20.0251 5.81584 19.9468 5.69532 19.8932C5.5748 19.8397 5.44434 19.8122 5.31247 19.8125Z" fill="#E48622"/>
</g>
</svg>
